<?xml version="1.0" encoding="UTF-8"?>
<!DOCTYPE svg PUBLIC "-//W3C//DTD SVG 1.1//EN" "http://www.w3.org/Graphics/SVG/1.1/DTD/svg11.dtd">
<!-- Creator: CorelDRAW 2021.5 -->
<svg xmlns="http://www.w3.org/2000/svg" xml:space="preserve" width="275.214mm" height="161.319mm" version="1.1" style="shape-rendering:geometricPrecision; text-rendering:geometricPrecision; image-rendering:optimizeQuality; fill-rule:evenodd; clip-rule:evenodd"
viewBox="0 0 8193.66 4802.79"
 xmlns:xlink="http://www.w3.org/1999/xlink"
 xmlns:xodm="http://www.corel.com/coreldraw/odm/2003">
 <defs>
  <style type="text/css">
   <![CDATA[
    .fil0 {fill:#E0FEE6}
   ]]>
  </style>
 </defs>
 <g id="Layer_x0020_1">
  <metadata id="CorelCorpID_0Corel-Layer"/>
  <path class="fil0" d="M1863.56 4055.69c-5.75,-257.35 -0.62,-587.26 -0.68,-861.79l0.01 -1533.5c0,-38.38 26.43,-24.86 146.77,-24.81l1782.32 1.18c8.92,79.33 2.43,1252.87 2.42,1425.83l-1.05 996.63c-17.83,-4.43 -198.54,-209.41 -230.77,-244.16 -178.55,-192.49 -396.3,-442.16 -575.34,-627.09 -34.8,-35.95 -79.58,-84.35 -152.86,-87.69 -72.44,-3.31 -133.59,34.62 -164.7,70.88 -39.72,46.29 -33.85,55.75 -107.61,133.72l-347.73 377.29c-34.26,37.05 -76.89,86.84 -115.69,126.05 -36.44,36.82 -77.19,87.45 -114.24,126.88 -20.4,21.71 -36.46,39.11 -58.53,62.54 -22.03,23.39 -43.42,53.89 -62.32,58.02zm-739.25 -1245.6c56.97,7.31 98.3,13.98 154.26,20.57 25.29,2.98 140.52,6.28 155.98,11.37 16.5,36.33 1.9,1605.21 9.62,1811.81l21.76 44.88c29.97,51.45 100.1,98.72 159.97,101.61 128.16,6.19 174.83,-52.8 231.66,-114.68 31.56,-34.36 315.43,-349.46 331.7,-357.41 16.62,-29.33 493,-541.17 551.13,-603.09 25.72,-27.4 53.24,-70.13 83.27,-87.48 22.33,9.37 192.35,198.04 203.63,217.91 22.88,11.7 305.65,334.46 367.11,395.85 41.15,41.1 80.56,92.43 121.59,135.57 62.71,65.92 193.54,202.19 244.84,264.19 84,101.51 197.6,198.15 342.62,127.25 144.82,-70.81 113.97,-213.73 113.97,-397.66l0 -1029.34c0,-100.49 -4.97,-439.23 1.09,-511.51 49.04,-8.97 966.12,-2.27 1041.93,-2.32l2615.35 -0.57c98.52,0 159.74,10.77 227.36,-35.58 119.78,-82.09 116.04,-261.25 10.41,-344.42 -66.44,-52.31 -120.28,-42.73 -222.01,-42.73l-3408.36 -0.17c-82.66,0.02 -178.64,4.46 -259.69,-0.86 -8.04,-31.95 -7.65,-705.32 -2.58,-773.41 68.24,-8.72 597.23,-1.66 713.92,-1.61l2499.81 0.82c108.14,-0.06 246.46,13.92 327.82,-28.8 183.9,-96.56 124.4,-400.68 -96.64,-401.29l-4296 -0.27c-475.62,0.36 -953.04,3.51 -1428.48,-0.87 -115.24,-1.06 -232.93,-6 -351.85,-4.51 -60.45,0.76 -114.05,5.46 -173.31,5.48 -254.87,0.05 -280.3,292.85 -130.12,392.61 52.12,34.62 78.07,26.09 151.72,32.11l2.04 774.08c-78.24,12.4 -255.64,-19.96 -316.43,-39.82 -255.11,-83.34 -473.21,-256.55 -591.49,-500.76 -131.85,-272.21 -142.39,-596.18 6.59,-889.81 118.85,-234.23 328.23,-423.67 592.33,-500.46 188.08,-54.68 461.8,-45.13 684.49,-45.17 486.66,-0.07 973.32,-0.22 1459.97,-0.04 1213.16,0.45 2432.29,-4.8 3644.7,0.5 238.77,1.04 476.88,8.79 719.47,8.53 120.02,-0.13 233.82,-8.88 352.01,-9.06 160.8,-0.24 248.03,-179.07 177.44,-314.05 -21.31,-40.74 -47.49,-69.29 -92.85,-91.1 -81.1,-39 -237.43,-23.27 -342.06,-23.27 -1943.13,-0.09 -3886.27,0.35 -5829.39,-0.27 -520.28,-0.17 -868.77,-16.38 -1234.56,218.1 -456.4,292.56 -707.04,796.7 -665.63,1339.14 17.35,227.26 115.92,483.54 245.77,667.75 178.69,253.48 436.45,445.87 732.39,543.47 22.61,7.46 48.94,15.48 68.39,20.8 13.85,3.79 70.48,16.02 73.34,17.95z"/>
 </g>
</svg>
