<svg width="24" height="24" viewBox="0 0 24 24" fill="none" xmlns="http://www.w3.org/2000/svg">
<path d="M15 3C15.2652 3 15.5196 3.10536 15.7071 3.29289C15.8946 3.48043 16 3.73478 16 4H18C18.2652 4 18.5196 4.10536 18.7071 4.29289C18.8946 4.48043 19 4.73478 19 5C19 5.26522 18.8946 5.51957 18.7071 5.70711C18.5196 5.89464 18.2652 6 18 6H6C5.73478 6 5.48043 5.89464 5.29289 5.70711C5.10536 5.51957 5 5.26522 5 5C5 4.73478 5.10536 4.48043 5.29289 4.29289C5.48043 4.10536 5.73478 4 6 4H8C8 3.73478 8.10536 3.48043 8.29289 3.29289C8.48043 3.10536 8.73478 3 9 3H15Z" fill="#DB363A"/>
<path fill-rule="evenodd" clip-rule="evenodd" d="M6 7H18V19C18 19.5304 17.7893 20.0391 17.4142 20.4142C17.0391 20.7893 16.5304 21 16 21H8C7.46957 21 6.96086 20.7893 6.58579 20.4142C6.21071 20.0391 6 19.5304 6 19V7ZM9.5 9C9.36739 9 9.24021 9.05268 9.14645 9.14645C9.05268 9.24021 9 9.36739 9 9.5V18.5C9 18.6326 9.05268 18.7598 9.14645 18.8536C9.24021 18.9473 9.36739 19 9.5 19C9.63261 19 9.75979 18.9473 9.85355 18.8536C9.94732 18.7598 10 18.6326 10 18.5V9.5C10 9.36739 9.94732 9.24021 9.85355 9.14645C9.75979 9.05268 9.63261 9 9.5 9ZM14.5 9C14.3674 9 14.2402 9.05268 14.1464 9.14645C14.0527 9.24021 14 9.36739 14 9.5V18.5C14 18.6326 14.0527 18.7598 14.1464 18.8536C14.2402 18.9473 14.3674 19 14.5 19C14.6326 19 14.7598 18.9473 14.8536 18.8536C14.9473 18.7598 15 18.6326 15 18.5V9.5C15 9.36739 14.9473 9.24021 14.8536 9.14645C14.7598 9.05268 14.6326 9 14.5 9Z" fill="#DB363A"/>
</svg>
