<svg width="17" height="17" viewBox="0 0 17 17" fill="none" xmlns="http://www.w3.org/2000/svg">
<g clip-path="url(#clip0_4_111)">
<path fill-rule="evenodd" clip-rule="evenodd" d="M0.0189163 14.1456C0.0189163 17.4144 -0.415606 16.98 2.85387 16.98C3.93184 16.98 4.73531 15.79 5.87885 14.6489C6.81124 13.7189 7.62583 12.9033 8.55933 11.9733C10.3441 10.1955 12.3389 8.36222 13.9747 6.53888L10.4652 3.02222C8.32151 4.94111 4.75087 8.70555 2.42157 11.0344C1.25025 12.2056 0.0189163 13.0344 0.0189163 14.1444V14.1456Z" fill="#0F9F38"/>
<path fill-rule="evenodd" clip-rule="evenodd" d="M11.5322 2.06561L14.9273 5.47894C15.364 5.2445 16.6665 4.04117 16.8921 3.59561C17.3744 2.64672 16.1086 1.81006 15.6507 1.35117C15.1918 0.892278 14.355 -0.376611 13.4048 0.107834C12.9636 0.332278 11.7556 1.64006 11.5322 2.0645V2.06561Z" fill="#0F9F38"/>
</g>
<defs>
<clipPath id="clip0_4_111">
<rect width="17" height="17" fill="white"/>
</clipPath>
</defs>
</svg>
