<svg width="30" height="30" viewBox="0 0 30 30" fill="none" xmlns="http://www.w3.org/2000/svg">
<path d="M21.7287 0.755371H8.32074C6.24709 0.757589 4.259 1.58233 2.7927 3.04862C1.32641 4.51492 0.501669 6.50301 0.499451 8.57666V21.9846C0.501669 24.0582 1.32641 26.0463 2.7927 27.5126C4.259 28.9789 6.24709 29.8037 8.32074 29.8059H21.7287C23.8023 29.8037 25.7904 28.9789 27.2567 27.5126C28.723 26.0463 29.5477 24.0582 29.55 21.9846V8.57666C29.5477 6.50301 28.723 4.51492 27.2567 3.04862C25.7904 1.58233 23.8023 0.757589 21.7287 0.755371ZM15.0247 21.9846C13.6988 21.9846 12.4026 21.5914 11.3002 20.8548C10.1977 20.1181 9.33846 19.0711 8.83105 17.8461C8.32364 16.6211 8.19088 15.2732 8.44956 13.9727C8.70823 12.6723 9.34672 11.4778 10.2843 10.5402C11.2219 9.60264 12.4164 8.96415 13.7168 8.70548C15.0173 8.4468 16.3652 8.57956 17.5902 9.08697C18.8152 9.59438 19.8622 10.4536 20.5988 11.5561C21.3355 12.6586 21.7287 13.9547 21.7287 15.2806C21.7268 17.0581 21.0199 18.7622 19.7631 20.019C18.5062 21.2758 16.8021 21.9827 15.0247 21.9846ZM23.4047 8.57666C23.0732 8.57666 22.7491 8.47837 22.4735 8.29421C22.1979 8.11005 21.9831 7.84829 21.8562 7.54204C21.7294 7.2358 21.6962 6.89881 21.7609 6.5737C21.8255 6.24859 21.9852 5.94996 22.2196 5.71557C22.4539 5.48117 22.7526 5.32155 23.0777 5.25688C23.4028 5.19221 23.7398 5.2254 24.046 5.35226C24.3523 5.47911 24.614 5.69392 24.7982 5.96954C24.9824 6.24515 25.0806 6.56919 25.0806 6.90067C25.0806 7.34517 24.9041 7.77147 24.5898 8.08577C24.2755 8.40008 23.8492 8.57666 23.4047 8.57666ZM19.494 15.2806C19.494 16.1646 19.2319 17.0287 18.7408 17.7636C18.2497 18.4986 17.5517 19.0715 16.735 19.4097C15.9184 19.748 15.0197 19.8365 14.1528 19.6641C13.2858 19.4916 12.4895 19.0659 11.8644 18.4409C11.2394 17.8159 10.8137 17.0195 10.6413 16.1525C10.4688 15.2856 10.5573 14.387 10.8956 13.5703C11.2339 12.7536 11.8067 12.0556 12.5417 11.5645C13.2767 11.0734 14.1408 10.8113 15.0247 10.8113C16.21 10.8113 17.3468 11.2822 18.185 12.1203C19.0231 12.9585 19.494 14.0953 19.494 15.2806Z" fill="#808080"/>
</svg>
