<svg width="37" height="37" viewBox="0 0 37 37" fill="none" xmlns="http://www.w3.org/2000/svg">
<path d="M18.1736 6.3623C11.5903 6.3623 6.25391 11.6987 6.25391 18.279C6.25391 23.1609 9.18875 27.3532 13.3884 29.196C13.3527 28.3632 13.381 27.3651 13.594 26.4608C13.8249 25.4924 15.1285 19.9654 15.1285 19.9654C15.1285 19.9654 14.7486 19.2041 14.7486 18.0793C14.7486 16.3125 15.772 14.994 17.0458 14.994C18.1318 14.994 18.6533 15.8089 18.6533 16.7832C18.6533 17.8723 17.959 19.5036 17.603 21.0127C17.3035 22.2775 18.2361 23.3084 19.4816 23.3084C21.7415 23.3084 23.2626 20.4079 23.2626 16.9724C23.2626 14.3609 21.5032 12.4048 18.3032 12.4048C14.6875 12.4048 12.4364 15.1013 12.4364 18.1121C12.4364 19.1505 12.7404 19.8835 13.2216 20.4496C13.4406 20.7103 13.4718 20.816 13.3914 21.114C13.3348 21.333 13.2037 21.8619 13.1486 22.0704C13.0696 22.3729 12.8253 22.4801 12.5527 22.3699C10.8871 21.6891 10.1124 19.8671 10.1124 17.8157C10.1124 14.4309 12.9683 10.3713 18.6294 10.3713C23.1807 10.3713 26.1766 13.6637 26.1766 17.1974C26.1766 21.8738 23.5755 25.3673 19.7438 25.3673C18.4566 25.3673 17.2469 24.6701 16.8328 23.8805C16.8328 23.8805 16.14 26.6276 15.994 27.1565C15.7408 28.0742 15.2462 28.9949 14.7948 29.71C15.8912 30.0347 17.0294 30.1986 18.1736 30.1986C24.7554 30.1986 30.0902 24.8623 30.0902 18.279C30.0902 11.6987 24.7554 6.3623 18.1736 6.3623Z" fill="#808080"/>
</svg>
