<svg width="25" height="25" viewBox="0 0 25 25" fill="none" xmlns="http://www.w3.org/2000/svg">
<path d="M0.401489 4.83161C0.401489 2.36307 2.40225 0.362305 4.8708 0.362305H19.7685C22.237 0.362305 24.2378 2.36307 24.2378 4.83161V19.7293C24.2378 22.1979 22.237 24.1986 19.7685 24.1986H4.8708C2.40225 24.1986 0.401489 22.1979 0.401489 19.7293V4.83161ZM7.62687 20.3148V9.55269H4.02759V20.3148H7.62687ZM5.82723 8.08229C7.08162 8.08229 7.86374 7.25696 7.86374 6.22306C7.83991 5.16681 7.08162 4.36383 5.85107 4.36383C4.61903 4.36383 3.81455 5.16681 3.81455 6.22306C3.81455 7.25696 4.59519 8.08229 5.80339 8.08229H5.82723ZM13.2195 20.3148V14.3051C13.2195 13.9833 13.2433 13.663 13.3372 13.4321C13.5979 12.79 14.1908 12.124 15.1845 12.124C16.488 12.124 17.0094 13.1103 17.0094 14.5583V20.3148H20.6087V14.1442C20.6087 10.8384 18.8329 9.29943 16.4642 9.29943C14.5543 9.29943 13.6977 10.3423 13.2195 11.0767V9.55269H9.61869C9.66637 10.5583 9.62018 20.2537 9.61869 20.3163L13.2195 20.3148Z" fill="#808080"/>
</svg>
