<svg width="37" height="37" viewBox="0 0 37 37" fill="none" xmlns="http://www.w3.org/2000/svg">
<path d="M26.8559 11.0342C26.6816 10.9463 26.5133 10.8495 26.3479 10.7437C25.8712 10.4338 25.4332 10.0688 25.0443 9.65617C24.073 8.56417 23.7095 7.45578 23.5754 6.67961H23.5814C23.4697 6.03454 23.5158 5.6189 23.5233 5.6189H19.0942V22.4369C19.0942 22.6633 19.0942 22.8868 19.0853 23.1073C19.0853 23.1341 19.0823 23.1594 19.0808 23.1892C19.0808 23.2012 19.0808 23.2131 19.0778 23.2265V23.2354C18.9825 24.4615 18.2733 25.5595 17.1858 26.1673C16.6271 26.4787 15.997 26.6425 15.3534 26.6425C13.2916 26.6425 11.6185 24.9889 11.6185 22.9494C11.6185 20.9084 13.2916 19.2562 15.3534 19.2562C15.7452 19.2548 16.1325 19.3158 16.5035 19.435L16.5095 15.0059C14.2301 14.7169 11.9329 15.3769 10.172 16.8264C9.40773 17.479 8.76712 18.2551 8.2755 19.1237C8.08779 19.441 7.38313 20.7118 7.29821 22.7766C7.24458 23.949 7.60212 25.1632 7.77345 25.6637V25.6757C7.88071 25.9706 8.29636 26.9792 8.97569 27.8284C9.52244 28.5107 10.169 29.1096 10.893 29.6057V29.5952L10.9035 29.6057C13.0472 31.0373 15.4249 30.9435 15.4249 30.9435C15.8361 30.9271 17.2141 30.9435 18.7799 30.215C20.5154 29.406 21.5032 28.2038 21.5032 28.2038C22.1348 27.4842 22.6369 26.6649 22.9885 25.7799C23.3892 24.746 23.5233 23.5051 23.5233 23.009V14.0853C23.5769 14.118 24.292 14.5828 24.292 14.5828C24.292 14.5828 25.3229 15.2309 26.9304 15.654C28.085 15.9549 29.6388 16.0175 29.6388 16.0175V11.7001C29.0935 11.7582 27.9881 11.5884 26.8559 11.0342Z" fill="#808080"/>
</svg>
