<svg width="33" height="25" viewBox="0 0 33 25" fill="none" xmlns="http://www.w3.org/2000/svg">
<path d="M31.464 4.11293C31.3324 3.59805 31.0803 3.12184 30.7284 2.72358C30.3765 2.32532 29.935 2.01644 29.4403 1.82241C24.6525 -0.0267645 17.0323 -0.0100045 16.6133 -0.0100045C16.1943 -0.0100045 8.57417 -0.0267645 3.78643 1.82241C3.29168 2.01644 2.85016 2.32532 2.49828 2.72358C2.14641 3.12184 1.89427 3.59805 1.76267 4.11293C1.40094 5.5068 0.970764 8.0543 0.970764 12.2806C0.970764 16.5069 1.40094 19.0544 1.76267 20.4483C1.89407 20.9634 2.14612 21.4399 2.49801 21.8384C2.84989 22.2369 3.29152 22.546 3.78643 22.7402C8.37306 24.5097 15.5519 24.5712 16.5212 24.5712H16.7055C17.6748 24.5712 24.8578 24.5097 29.4403 22.7402C29.9352 22.546 30.3768 22.2369 30.7287 21.8384C31.0806 21.4399 31.3326 20.9634 31.464 20.4483C31.8258 19.0516 32.2559 16.5069 32.2559 12.2806C32.2559 8.0543 31.8258 5.5068 31.464 4.11293ZM21.3927 12.7457L14.6887 17.215C14.6046 17.2711 14.5068 17.3034 14.4057 17.3083C14.3047 17.3132 14.2042 17.2905 14.115 17.2428C14.0258 17.195 13.9513 17.124 13.8993 17.0372C13.8474 16.9504 13.82 16.8511 13.82 16.7499V7.81129C13.82 7.71012 13.8474 7.61083 13.8993 7.52403C13.9513 7.43722 14.0258 7.36615 14.115 7.3184C14.2042 7.27065 14.3047 7.24802 14.4057 7.25291C14.5068 7.25781 14.6046 7.29005 14.6887 7.3462L21.3927 11.8155C21.4693 11.8665 21.5322 11.9356 21.5756 12.0168C21.6191 12.0979 21.6419 12.1885 21.6419 12.2806C21.6419 12.3726 21.6191 12.4633 21.5756 12.5444C21.5322 12.6255 21.4693 12.6947 21.3927 12.7457Z" fill="#808080"/>
</svg>
