<svg width="48" height="48" viewBox="0 0 48 48" fill="none" xmlns="http://www.w3.org/2000/svg">
<rect y="-0.0100098" width="48" height="48" rx="4" fill="#2D2D2D"/>
<path d="M33.2216 22.2871L29.6591 25.8496C29.0802 26.4276 28.3758 26.8644 27.6006 27.1259C26.8254 27.3875 26.0004 27.4667 25.1896 27.3575C24.3788 27.2483 23.6041 26.9536 22.9257 26.4963C22.2474 26.039 21.6836 25.4314 21.2782 24.7208C21.2276 24.6352 21.1946 24.5403 21.181 24.4417C21.1674 24.3432 21.1736 24.2429 21.1991 24.1468C21.2246 24.0506 21.269 23.9605 21.3297 23.8817C21.3904 23.8029 21.4662 23.7369 21.5527 23.6876C21.6391 23.6384 21.7345 23.6068 21.8332 23.5948C21.932 23.5828 22.0321 23.5905 22.1279 23.6175C22.2236 23.6446 22.313 23.6904 22.3909 23.7524C22.4687 23.8143 22.5335 23.8911 22.5814 23.9783C22.8721 24.4888 23.2768 24.9253 23.7638 25.2539C24.2508 25.5825 24.8071 25.7942 25.3894 25.8727C25.9716 25.9511 26.5641 25.8942 27.1207 25.7062C27.6774 25.5183 28.1831 25.2044 28.5986 24.7891L32.1611 21.2266C32.877 20.5108 33.2791 19.54 33.2792 18.5278C33.2793 17.5155 32.8772 16.5446 32.1615 15.8288C31.4458 15.113 30.475 14.7108 29.4627 14.7107C28.4504 14.7106 27.4796 15.1127 26.7637 15.8284L23.4975 19.0947C23.356 19.2313 23.1666 19.3069 22.9699 19.3052C22.7733 19.3035 22.5852 19.2246 22.4461 19.0855C22.3071 18.9465 22.2282 18.7584 22.2265 18.5617C22.2248 18.3651 22.3004 18.1756 22.437 18.0342L25.7032 14.7679C26.7003 13.7709 28.0527 13.2109 29.4627 13.2109C30.1609 13.211 30.8522 13.3485 31.4972 13.6157C32.1423 13.883 32.7283 14.2746 33.222 14.7683C33.7157 15.262 34.1072 15.8481 34.3744 16.4932C34.6415 17.1382 34.779 17.8296 34.779 18.5278C34.779 19.2259 34.6414 19.9173 34.3742 20.5623C34.107 21.2073 33.7153 21.7934 33.2216 22.2871ZM24.5025 28.8852L21.2362 32.1514C20.8817 32.5058 20.4608 32.7869 19.9976 32.9787C19.5344 33.1704 19.0379 33.269 18.5366 33.2689C18.0353 33.2688 17.5389 33.1699 17.0758 32.9779C16.6127 32.786 16.192 32.5047 15.8376 32.1501C15.1218 31.434 14.7199 30.463 14.7201 29.4505C14.7204 28.4381 15.1228 27.4672 15.8389 26.7514L19.4014 23.1889C19.8172 22.7742 20.323 22.4609 20.8795 22.2734C21.4361 22.0858 22.0283 22.0291 22.6103 22.1075C23.1923 22.1859 23.7485 22.3974 24.2355 22.7256C24.7225 23.0537 25.1274 23.4897 25.4186 23.9997C25.4665 24.0869 25.5313 24.1637 25.6091 24.2256C25.687 24.2876 25.7764 24.3334 25.8721 24.3604C25.9678 24.3875 26.068 24.3952 26.1668 24.3832C26.2655 24.3712 26.3609 24.3396 26.4473 24.2903C26.5338 24.2411 26.6095 24.1751 26.6702 24.0963C26.731 24.0175 26.7754 23.9274 26.8009 23.8312C26.8264 23.7351 26.8326 23.6348 26.819 23.5363C26.8054 23.4377 26.7724 23.3428 26.7217 23.2572C26.3168 22.5461 25.7532 21.938 25.0749 21.4804C24.3965 21.0227 23.6217 20.7278 22.8107 20.6186C21.9997 20.5093 21.1744 20.5888 20.3992 20.8506C19.6239 21.1125 18.9195 21.5498 18.3409 22.1284L14.7784 25.6909C13.781 26.6879 13.2206 28.0403 13.2203 29.4505C13.2201 30.8607 13.7801 32.2133 14.7771 33.2106C15.7741 34.208 17.1264 34.7684 18.5366 34.7687C19.9468 34.7689 21.2994 34.2089 22.2967 33.2119L25.563 29.9457C25.6996 29.8042 25.7752 29.6148 25.7735 29.4181C25.7718 29.2215 25.6929 29.0334 25.5539 28.8943C25.4148 28.7553 25.2267 28.6764 25.03 28.6747C24.8334 28.673 24.6439 28.7486 24.5025 28.8852Z" fill="#DB363A"/>
</svg>
