<svg width="39" height="48" viewBox="0 0 39 48" fill="none" xmlns="http://www.w3.org/2000/svg">
<g clip-path="url(#clip0_4169_167)">
<path fill-rule="evenodd" clip-rule="evenodd" d="M5.14657 41.0098C4.72421 38.6095 5.09485 31.5334 5.09485 28.6523C5.08623 20.1249 2.75464 21.4774 23.1011 21.4774C36.0003 21.4774 33.8928 19.3262 33.9057 35.8315C33.9143 44.3589 36.2459 43.0064 15.8995 43.0064C12.874 43.0064 5.71546 44.243 5.14657 41.014V41.0098ZM12.2965 13.1003C12.2965 1.91502 26.7041 1.91502 26.7041 13.1003V16.6899H12.2965V13.1003ZM7.4954 16.7113C-2.2447 17.5272 0.306684 29.2062 0.285136 38.2231C0.259277 50.2843 8.96934 47.7896 19.4981 47.7896C30.0269 47.7896 38.737 50.2843 38.7111 38.2231C38.6896 29.2105 41.2453 17.5314 31.5009 16.7113C31.5009 11.9453 31.5526 7.93917 29.0874 4.74032C24.2216 -1.58011 14.766 -1.58011 9.90456 4.74032C7.43937 7.93917 7.49109 11.9495 7.49109 16.7113H7.4954Z" fill="#B4B4B4"/>
</g>
<defs>
<clipPath id="clip0_4169_167">
<rect width="39" height="48" fill="white"/>
</clipPath>
</defs>
</svg>
