<svg width="48" height="48" viewBox="0 0 48 48" fill="none" xmlns="http://www.w3.org/2000/svg">
<rect y="-0.0100098" width="48" height="48" rx="4" fill="#DB363A"/>
<g clip-path="url(#clip0_4747_1159)">
<g clip-path="url(#clip1_4747_1159)">
<path d="M23.503 14.418L15.937 15.928L14.428 23.493C14.404 23.614 14.411 23.739 14.447 23.856C14.483 23.974 14.547 24.081 14.634 24.168L24.422 33.956C24.491 34.026 24.573 34.082 24.664 34.121C24.755 34.159 24.853 34.179 24.951 34.179C25.05 34.179 25.148 34.159 25.239 34.121C25.33 34.082 25.412 34.026 25.481 33.956L33.965 25.471C34.036 25.402 34.092 25.32 34.131 25.229C34.169 25.138 34.189 25.04 34.189 24.942C34.189 24.843 34.169 24.745 34.131 24.654C34.092 24.563 34.036 24.481 33.965 24.412L24.178 14.624C24.091 14.537 23.984 14.473 23.866 14.437C23.749 14.401 23.624 14.395 23.503 14.418Z" stroke="white" stroke-width="2" stroke-linecap="round" stroke-linejoin="round"/>
<path d="M19.875 20.99C20.496 20.99 21 20.486 21 19.865C21 19.244 20.496 18.74 19.875 18.74C19.254 18.74 18.75 19.244 18.75 19.865C18.75 20.486 19.254 20.99 19.875 20.99Z" fill="white"/>
</g>
</g>
<defs>
<clipPath id="clip0_4747_1159">
<rect width="24" height="24" fill="white" transform="translate(12 11.99)"/>
</clipPath>
<clipPath id="clip1_4747_1159">
<rect width="24" height="24" fill="white" transform="translate(12 11.99)"/>
</clipPath>
</defs>
</svg>
