<svg width="48" height="48" viewBox="0 0 48 48" fill="none" xmlns="http://www.w3.org/2000/svg">
<rect y="-0.0100098" width="48" height="48" rx="4" fill="#493F7E"/>
<path d="M33.222 22.2871L29.6595 25.8496C29.0806 26.4277 28.3761 26.8645 27.601 27.126C26.8258 27.3875 26.0007 27.4668 25.1899 27.3576C24.3792 27.2484 23.6045 26.9537 22.9261 26.4964C22.2477 26.0391 21.684 25.4315 21.2786 24.7209C21.228 24.6352 21.1949 24.5404 21.1814 24.4418C21.1678 24.3432 21.1739 24.243 21.1995 24.1468C21.225 24.0507 21.2694 23.9606 21.3301 23.8817C21.3908 23.8029 21.4666 23.737 21.553 23.6877C21.6395 23.6385 21.7348 23.6069 21.8336 23.5949C21.9324 23.5828 22.0325 23.5906 22.1283 23.6176C22.224 23.6447 22.3134 23.6905 22.3912 23.7524C22.4691 23.8144 22.5339 23.8912 22.5817 23.9784C22.8725 24.4889 23.2771 24.9254 23.7642 25.254C24.2512 25.5826 24.8075 25.7943 25.3897 25.8728C25.972 25.9512 26.5645 25.8942 27.1211 25.7063C27.6777 25.5183 28.1835 25.2045 28.599 24.7891L32.1615 21.2266C32.8773 20.5109 33.2795 19.5401 33.2796 18.5278C33.2797 17.5155 32.8776 16.5447 32.1619 15.8289C31.4461 15.113 30.4753 14.7108 29.4631 14.7108C28.4508 14.7107 27.4799 15.1128 26.7641 15.8285L23.4979 19.0947C23.3564 19.2314 23.167 19.307 22.9703 19.3053C22.7737 19.3035 22.5856 19.2247 22.4465 19.0856C22.3074 18.9466 22.2286 18.7584 22.2269 18.5618C22.2251 18.3651 22.3007 18.1757 22.4374 18.0342L25.7036 14.768C26.7007 13.771 28.053 13.2109 29.4631 13.211C30.1612 13.211 30.8526 13.3486 31.4976 13.6158C32.1426 13.883 32.7287 14.2747 33.2224 14.7684C33.716 15.2621 34.1076 15.8482 34.3748 16.4932C34.6419 17.1383 34.7794 17.8296 34.7794 18.5278C34.7793 19.226 34.6418 19.9173 34.3746 20.5624C34.1073 21.2074 33.7157 21.7935 33.222 22.2871ZM24.5029 28.8852L21.2366 32.1515C20.882 32.5059 20.4611 32.787 19.9979 32.9787C19.5347 33.1704 19.0383 33.2691 18.537 33.2689C18.0357 33.2688 17.5393 33.17 17.0762 32.978C16.6131 32.786 16.1923 32.5048 15.8379 32.1502C15.1222 31.4341 14.7202 30.463 14.7205 29.4506C14.7207 28.4381 15.1232 27.4672 15.8392 26.7515L19.4017 23.189C19.8176 22.7743 20.3234 22.461 20.8799 22.2734C21.4364 22.0859 22.0287 22.0291 22.6107 22.1075C23.1927 22.186 23.7488 22.3975 24.2359 22.7256C24.7229 23.0538 25.1278 23.4898 25.419 23.9997C25.4669 24.087 25.5316 24.1638 25.6095 24.2257C25.6873 24.2876 25.7767 24.3335 25.8725 24.3605C25.9682 24.3876 26.0684 24.3953 26.1671 24.3833C26.2659 24.3712 26.3613 24.3397 26.4477 24.2904C26.5341 24.2412 26.6099 24.1752 26.6706 24.0964C26.7313 24.0176 26.7757 23.9274 26.8013 23.8313C26.8268 23.7351 26.833 23.6349 26.8194 23.5363C26.8058 23.4378 26.7727 23.3429 26.7221 23.2572C26.3172 22.5461 25.7536 21.9381 25.0752 21.4804C24.3969 21.0228 23.622 20.7278 22.811 20.6186C22 20.5094 21.1748 20.5888 20.3995 20.8507C19.6242 21.1126 18.9199 21.5499 18.3412 22.1285L14.7787 25.691C13.7814 26.688 13.2209 28.0404 13.2207 29.4506C13.2205 30.8608 13.7804 32.2133 14.7774 33.2107C15.7744 34.208 17.1268 34.7685 18.537 34.7687C19.9472 34.769 21.2998 34.209 22.2971 33.212L25.5634 29.9457C25.7 29.8043 25.7756 29.6148 25.7739 29.4182C25.7722 29.2215 25.6933 29.0334 25.5542 28.8944C25.4152 28.7553 25.2271 28.6765 25.0304 28.6747C24.8338 28.673 24.6443 28.7486 24.5029 28.8852Z" fill="white"/>
</svg>
