<svg width="31" height="31" viewBox="0 0 31 31" fill="none" xmlns="http://www.w3.org/2000/svg">
<g clip-path="url(#clip0_1_13)">
<path fill-rule="evenodd" clip-rule="evenodd" d="M12.1226 4.32448C18.5462 2.70425 23.5766 7.32915 24.6498 12.2706C26.0492 18.7174 21.6442 23.691 16.6852 24.7874C3.5769 27.6855 -1.55669 7.77461 12.1226 4.32448ZM23.2144 26.1398C25.2523 28.289 28.43 32.4159 30.3721 30.5108C32.5025 28.4207 28.7517 26.7162 26.0243 23.3928C27.0362 20.6372 29.462 18.9114 28.6565 12.5242C28.2157 9.03018 26.0149 5.3568 23.9489 3.70906C8.93421 -8.26504 -7.33372 11.5194 3.54469 23.9212C5.52382 26.1777 8.34203 28.2204 12.1846 28.7861C18.2283 29.6752 20.1981 27.4706 23.2147 26.1398H23.2144Z" fill="white"/>
</g>
<defs>
<clipPath id="clip0_1_13">
<rect width="31" height="31" fill="white"/>
</clipPath>
</defs>
</svg>
