<svg width="80" height="30" viewBox="0 0 80 30" fill="none" xmlns="http://www.w3.org/2000/svg">
<path d="M38.346 21.216C37.422 21.216 36.618 21.048 35.934 20.712C35.25 20.376 34.722 19.908 34.35 19.308C33.978 18.708 33.792 18.012 33.792 17.22H35.376C35.376 17.712 35.49 18.168 35.718 18.588C35.946 18.996 36.276 19.326 36.708 19.578C37.152 19.818 37.698 19.938 38.346 19.938C39.198 19.938 39.858 19.734 40.326 19.326C40.794 18.918 41.028 18.408 41.028 17.796C41.028 17.292 40.92 16.89 40.704 16.59C40.488 16.278 40.194 16.026 39.822 15.834C39.462 15.642 39.042 15.474 38.562 15.33C38.094 15.186 37.602 15.024 37.086 14.844C36.114 14.508 35.394 14.094 34.926 13.602C34.458 13.098 34.224 12.444 34.224 11.64C34.212 10.968 34.368 10.374 34.692 9.858C35.016 9.33 35.472 8.922 36.06 8.634C36.66 8.334 37.368 8.184 38.184 8.184C38.988 8.184 39.684 8.334 40.272 8.634C40.872 8.934 41.334 9.348 41.658 9.876C41.994 10.404 42.168 11.004 42.18 11.676H40.596C40.596 11.328 40.506 10.986 40.326 10.65C40.146 10.302 39.87 10.02 39.498 9.804C39.138 9.588 38.682 9.48 38.13 9.48C37.446 9.468 36.882 9.642 36.438 10.002C36.006 10.362 35.79 10.86 35.79 11.496C35.79 12.036 35.94 12.45 36.24 12.738C36.552 13.026 36.984 13.266 37.536 13.458C38.088 13.638 38.724 13.848 39.444 14.088C40.044 14.304 40.584 14.556 41.064 14.844C41.544 15.132 41.916 15.504 42.18 15.96C42.456 16.416 42.594 16.998 42.594 17.706C42.594 18.306 42.438 18.876 42.126 19.416C41.814 19.944 41.34 20.376 40.704 20.712C40.08 21.048 39.294 21.216 38.346 21.216ZM44.6483 21V8.04H46.1603V13.602C46.4603 13.05 46.8863 12.624 47.4383 12.324C47.9903 12.012 48.5903 11.856 49.2383 11.856C50.2703 11.856 51.0983 12.18 51.7223 12.828C52.3463 13.464 52.6582 14.448 52.6582 15.78V21H51.1643V15.942C51.1643 14.082 50.4143 13.152 48.9143 13.152C48.1343 13.152 47.4803 13.434 46.9523 13.998C46.4243 14.55 46.1603 15.342 46.1603 16.374V21H44.6483ZM57.919 21.216C57.175 21.216 56.557 21.09 56.065 20.838C55.573 20.586 55.207 20.25 54.967 19.83C54.727 19.41 54.607 18.954 54.607 18.462C54.607 17.55 54.955 16.848 55.651 16.356C56.347 15.864 57.295 15.618 58.495 15.618H60.907V15.51C60.907 14.73 60.703 14.142 60.295 13.746C59.887 13.338 59.341 13.134 58.657 13.134C58.069 13.134 57.559 13.284 57.127 13.584C56.707 13.872 56.443 14.298 56.335 14.862H54.787C54.847 14.214 55.063 13.668 55.435 13.224C55.819 12.78 56.293 12.444 56.857 12.216C57.421 11.976 58.021 11.856 58.657 11.856C59.905 11.856 60.841 12.192 61.465 12.864C62.101 13.524 62.419 14.406 62.419 15.51V21H61.069L60.979 19.398C60.727 19.902 60.355 20.334 59.863 20.694C59.383 21.042 58.735 21.216 57.919 21.216ZM58.153 19.938C58.729 19.938 59.221 19.788 59.629 19.488C60.049 19.188 60.367 18.798 60.583 18.318C60.799 17.838 60.907 17.334 60.907 16.806V16.788H58.621C57.733 16.788 57.103 16.944 56.731 17.256C56.371 17.556 56.191 17.934 56.191 18.39C56.191 18.858 56.359 19.236 56.695 19.524C57.043 19.8 57.529 19.938 58.153 19.938ZM64.6873 21V12.072H66.0553L66.1813 13.782C66.4573 13.194 66.8773 12.726 67.4413 12.378C68.0053 12.03 68.7013 11.856 69.5293 11.856V13.44H69.1153C68.5873 13.44 68.1013 13.536 67.6573 13.728C67.2133 13.908 66.8593 14.22 66.5953 14.664C66.3313 15.108 66.1993 15.72 66.1993 16.5V21H64.6873ZM74.9064 21.216C74.0544 21.216 73.2984 21.024 72.6384 20.64C71.9784 20.244 71.4564 19.698 71.0724 19.002C70.7004 18.306 70.5144 17.484 70.5144 16.536C70.5144 15.6 70.7004 14.784 71.0724 14.088C71.4444 13.38 71.9604 12.834 72.6204 12.45C73.2924 12.054 74.0664 11.856 74.9424 11.856C75.8064 11.856 76.5504 12.054 77.1744 12.45C77.8104 12.834 78.2964 13.344 78.6324 13.98C78.9684 14.616 79.1364 15.3 79.1364 16.032C79.1364 16.164 79.1304 16.296 79.1184 16.428C79.1184 16.56 79.1184 16.71 79.1184 16.878H72.0084C72.0444 17.562 72.2004 18.132 72.4764 18.588C72.7644 19.032 73.1184 19.368 73.5384 19.596C73.9704 19.824 74.4264 19.938 74.9064 19.938C75.5304 19.938 76.0524 19.794 76.4724 19.506C76.8924 19.218 77.1984 18.828 77.3904 18.336H78.8844C78.6444 19.164 78.1824 19.854 77.4984 20.406C76.8264 20.946 75.9624 21.216 74.9064 21.216ZM74.9064 13.134C74.1864 13.134 73.5444 13.356 72.9804 13.8C72.4284 14.232 72.1104 14.868 72.0264 15.708H77.6424C77.6064 14.904 77.3304 14.274 76.8144 13.818C76.2984 13.362 75.6624 13.134 74.9064 13.134Z" fill="#666666"/>
<g clip-path="url(#clip0_1_108)">
<path d="M19.8 30H2.19993C0.987214 30 0 29.0388 0 27.8571V10.7143C0 9.53282 0.987214 8.57144 2.19993 8.57144H6.04996C6.35379 8.57144 6.59999 8.81143 6.59999 9.10719C6.59999 9.40303 6.35389 9.64293 6.04996 9.64293H2.19993C1.59362 9.64293 1.09997 10.1237 1.09997 10.7144V27.8572C1.09997 28.4481 1.59362 28.9286 2.19993 28.9286H19.8C20.4063 28.9286 20.8999 28.448 20.8999 27.8572V10.7144C20.8999 10.1237 20.4063 9.64293 19.8 9.64293H15.9499C15.646 9.64293 15.3999 9.40303 15.3999 9.10719C15.3999 8.81153 15.646 8.57144 15.9499 8.57144H19.8C21.0127 8.57144 21.9999 9.53282 21.9999 10.7143V27.8571C21.9999 29.0388 21.0127 30 19.8 30Z" fill="#666666"/>
<path d="M16.5 6.42856C16.3598 6.42856 16.2181 6.37628 16.1109 6.27173L11.0001 1.29331L5.88915 6.27173C5.67467 6.48093 5.32539 6.48093 5.1109 6.27173C4.89642 6.06254 4.89642 5.72327 5.1109 5.51408L10.6109 0.156925C10.8254 -0.0522676 11.1747 -0.0522676 11.3892 0.156925L16.8892 5.51408C17.1037 5.72327 17.1037 6.06254 16.8892 6.27173C16.782 6.37628 16.6403 6.42856 16.5001 6.42856H16.5Z" fill="#666666"/>
<path d="M11 20.3572C10.696 20.3572 10.4499 20.1173 10.4499 19.8214V0.535775C10.4499 0.240117 10.696 3.05176e-05 11 3.05176e-05C11.3038 3.05176e-05 11.55 0.240023 11.55 0.535775V19.8214C11.55 20.1173 11.3039 20.3572 11 20.3572Z" fill="#666666"/>
</g>
<defs>
<clipPath id="clip0_1_108">
<rect width="22" height="30" fill="white"/>
</clipPath>
</defs>
</svg>
