<svg width="22" height="30" viewBox="0 0 22 30" fill="none" xmlns="http://www.w3.org/2000/svg">
<path d="M19.8 30H2.19993C0.987214 30 0 29.0388 0 27.8571V10.7143C0 9.53282 0.987214 8.57144 2.19993 8.57144H6.04996C6.35379 8.57144 6.59999 8.81143 6.59999 9.10719C6.59999 9.40303 6.35389 9.64293 6.04996 9.64293H2.19993C1.59362 9.64293 1.09997 10.1237 1.09997 10.7144V27.8572C1.09997 28.4481 1.59362 28.9286 2.19993 28.9286H19.8C20.4063 28.9286 20.8999 28.448 20.8999 27.8572V10.7144C20.8999 10.1237 20.4063 9.64293 19.8 9.64293H15.9499C15.646 9.64293 15.3999 9.40303 15.3999 9.10719C15.3999 8.81153 15.646 8.57144 15.9499 8.57144H19.8C21.0127 8.57144 21.9999 9.53282 21.9999 10.7143V27.8571C21.9999 29.0388 21.0127 30 19.8 30Z" fill="#666666"/>
<path d="M16.5 6.42856C16.3598 6.42856 16.2181 6.37628 16.1109 6.27173L11.0001 1.29331L5.88915 6.27173C5.67467 6.48093 5.32539 6.48093 5.1109 6.27173C4.89642 6.06254 4.89642 5.72327 5.1109 5.51408L10.6109 0.156925C10.8254 -0.0522676 11.1747 -0.0522676 11.3892 0.156925L16.8892 5.51408C17.1037 5.72327 17.1037 6.06254 16.8892 6.27173C16.782 6.37628 16.6403 6.42856 16.5001 6.42856H16.5Z" fill="#666666"/>
<path d="M11 20.3572C10.696 20.3572 10.4499 20.1173 10.4499 19.8214V0.535775C10.4499 0.240117 10.696 3.05176e-05 11 3.05176e-05C11.3038 3.05176e-05 11.55 0.240023 11.55 0.535775V19.8214C11.55 20.1173 11.3039 20.3572 11 20.3572Z" fill="#666666"/>
</svg>
