<svg width="25" height="25" viewBox="0 0 25 25" fill="none" xmlns="http://www.w3.org/2000/svg">
<path d="M12.1736 0.362305C5.59026 0.362305 0.253906 5.69866 0.253906 12.279C0.253906 17.1609 3.18875 21.3532 7.38841 23.196C7.35266 22.3632 7.38096 21.3651 7.594 20.4608C7.82491 19.4924 9.12846 13.9654 9.12846 13.9654C9.12846 13.9654 8.74857 13.2041 8.74857 12.0793C8.74857 10.3125 9.77204 8.99403 11.0458 8.99403C12.1318 8.99403 12.6533 9.80893 12.6533 10.7832C12.6533 11.8723 11.959 13.5036 11.603 15.0127C11.3035 16.2775 12.2361 17.3084 13.4816 17.3084C15.7415 17.3084 17.2626 14.4079 17.2626 10.9724C17.2626 8.36088 15.5032 6.40481 12.3032 6.40481C8.68749 6.40481 6.43645 9.10129 6.43645 12.1121C6.43645 13.1505 6.74036 13.8835 7.22156 14.4496C7.44055 14.7103 7.47184 14.816 7.39139 15.114C7.33478 15.333 7.20368 15.8619 7.14856 16.0704C7.0696 16.3729 6.82528 16.4801 6.55265 16.3699C4.88709 15.6891 4.11241 13.8671 4.11241 11.8157C4.11241 8.4309 6.9683 4.37127 12.6294 4.37127C17.1807 4.37127 20.1766 7.66366 20.1766 11.1974C20.1766 15.8738 17.5755 19.3673 13.7438 19.3673C12.4566 19.3673 11.2469 18.6701 10.8328 17.8805C10.8328 17.8805 10.14 20.6276 9.99402 21.1565C9.74076 22.0742 9.24615 22.9949 8.79475 23.71C9.89122 24.0347 11.0294 24.1986 12.1736 24.1986C18.7554 24.1986 24.0902 18.8623 24.0902 12.279C24.0902 5.69866 18.7554 0.362305 12.1736 0.362305Z" fill="#808080"/>
</svg>
