<svg width="24" height="31" viewBox="0 0 24 31" fill="none" xmlns="http://www.w3.org/2000/svg">
<g clip-path="url(#clip0_4382_43)">
<path fill-rule="evenodd" clip-rule="evenodd" d="M5.61169 27.3864C4.3534 26.9754 3.30947 25.8299 3.40931 24.0636C3.50181 22.424 4.87169 21.5481 5.57498 20.7131L3.24487 18.3696C1.94694 19.8736 -0.0102374 20.9725 4.03142e-05 24.3186C0.00884981 27.0643 1.59162 29.01 3.24928 30.0024C8.66418 33.2393 12.7151 27.7391 14.7912 25.6798C16.857 23.6293 22.5435 19.5676 19.7069 14.2219C17.3034 9.69233 11.2894 9.31487 8.26335 13.5413C8.88148 14.8238 9.17953 15.2858 10.7006 15.7419C11.5155 14.783 12.3686 13.6375 14.5298 14.0091C16.0157 14.2641 17.0714 15.4592 17.1066 17.1381C17.1551 19.3898 13.5182 22.2637 12.2952 23.4777C11.0002 24.7617 8.5012 28.3294 5.61022 27.385L5.61169 27.3864Z" fill="#B4B4B4"/>
<path fill-rule="evenodd" clip-rule="evenodd" d="M13.4172 15.2726C12.4173 16.1092 11.8227 17.3378 9.53369 16.9428C8.04929 16.6878 6.99362 15.4883 6.95692 13.8153C6.907 11.5636 10.5438 8.6911 11.7684 7.47564C13.0634 6.19022 15.5623 2.62401 18.4533 3.56839C19.7116 3.97937 20.7555 5.12488 20.6557 6.89123C20.547 8.8106 19.3343 8.83392 18.7088 10.2272C19.4517 11.0273 20.2255 11.6889 20.9435 12.3812C22.3368 11.1439 24.0253 9.60196 24.0004 6.63618C23.9769 3.86278 22.419 1.96235 20.7849 0.990278C15.4126 -2.20868 11.347 3.21279 9.27088 5.27644C7.19037 7.34447 1.50971 11.3683 4.35518 16.7344C5.31101 18.5372 6.89378 20.1345 9.79504 20.3239C12.642 20.509 14.7122 19.091 15.7429 17.4135C15.1879 16.1121 14.7665 15.6618 13.4172 15.2741V15.2726Z" fill="#B4B4B4"/>
</g>
<defs>
<clipPath id="clip0_4382_43">
<rect width="24" height="31" fill="white"/>
</clipPath>
</defs>
</svg>
