<svg width="29" height="29" viewBox="0 0 29 29" fill="none" xmlns="http://www.w3.org/2000/svg">
<g clip-path="url(#clip0_4378_32)">
<path d="M21.9751 11.9341H7.02518C6.33926 11.9341 5.7832 12.5514 5.7832 13.313V13.313C5.7832 14.0746 6.33926 14.6919 7.02518 14.6919H21.9751C22.661 14.6919 23.217 14.0746 23.217 13.313V13.313C23.217 12.5514 22.661 11.9341 21.9751 11.9341Z" fill="#B4B4B4"/>
<path d="M21.9751 16.1423H7.02518C6.33926 16.1423 5.7832 16.7597 5.7832 17.5212V17.5213C5.7832 18.2828 6.33926 18.9002 7.02518 18.9002H21.9751C22.661 18.9002 23.217 18.2828 23.217 17.5213V17.5212C23.217 16.7597 22.661 16.1423 21.9751 16.1423Z" fill="#B4B4B4"/>
<path d="M21.9751 20.5085H7.02518C6.33926 20.5085 5.7832 21.1259 5.7832 21.8874V21.8875C5.7832 22.649 6.33926 23.2664 7.02518 23.2664H21.9751C22.661 23.2664 23.217 22.649 23.217 21.8875V21.8874C23.217 21.1259 22.661 20.5085 21.9751 20.5085Z" fill="#B4B4B4"/>
<path fill-rule="evenodd" clip-rule="evenodd" d="M3.54189 0H25.458C27.4061 0 28.9999 1.5832 28.9999 3.51824V25.4817C28.9999 27.4167 27.4061 28.9999 25.458 28.9999H3.54189C1.59384 28.9999 0 27.4167 0 25.4817V3.51824C0 1.5832 1.59384 0 3.54189 0ZM2.94084 3.13471H26.1017V6.01058H2.94084V3.13471ZM2.94084 8.88617H26.1017V26.141H2.94084V8.88617Z" fill="#B4B4B4"/>
</g>
<defs>
<clipPath id="clip0_4378_32">
<rect width="29" height="29" fill="white"/>
</clipPath>
</defs>
</svg>
